
<svg xmlns="http://www.w3.org/2000/svg" xmlns:xlink="http://www.w3.org/1999/xlink" viewBox="0 0 1440 901" width="1440" height="901" fill="none">
  <rect width="1440" height="901" fill="#1a1a2e"></rect>
  <g opacity="100%">
    <rect x="0" y="0" width="1426" height="64" fill="#16213e" filter="url(#filter_dshadow_0_0_0_00000014)"></rect>
    <rect x="0" y="64" width="1426" height="0" fill="#e5e7eb"></rect>
  </g>
  <g opacity="100%">
    <text x="31" y="39.5" font-family="Roboto" font-size="24" fill="#fff" letter-spacing="0" font-weight="700" font-style="normal">DinoAir</text>
  </g>
  <g opacity="100%">
    <rect filter="url(#filter_dshadow_0_0_0_00000014)" x="112" y="16" width="400" height="30" fill="#15213e" rx="15" stroke="#e5e7eb" stroke-width="0"></rect>
    <text x="120" y="36.5" font-family="Roboto" font-size="16" fill="#94a3b8" letter-spacing="0" font-weight="normal" font-style="normal">
      <tspan>Search artifacts...</tspan>
    </text>
  </g>
  <g opacity="100%">
    <rect x="23" y="87" width="444" height="789" fill="#0f3460" stroke="#e5e7eb" stroke-width="0" rx="8" filter="url(#filter_dshadow_6_0_4_0000001a)"></rect>
  </g>
  <g opacity="100%">
    <rect x="39" y="103" width="50" height="50" fill="#32bc9b" stroke="#e5e7eb" stroke-width="0" rx="25" filter="url(#filter_dshadow_0_0_0_00000014)"></rect>
  </g>
  <svg xmlns="http://www.w3.org/2000/svg" viewBox="0 0 384 512" width="13" height="13" fill="#fff" x="58" y="121.5" opacity="100%">
    <path d="M384 121.941V128H256V0h6.059c6.365 0 12.47 2.529 16.971 7.029l97.941 97.941A24.005 24.005 0 0 1 384 121.941zM248 160c-13.2 0-24-10.8-24-24V0H24C10.745 0 0 10.745 0 24v464c0 13.255 10.745 24 24 24h336c13.255 0 24-10.745 24-24V160H248zM123.206 400.505a5.4 5.4 0 0 1-7.633.246l-64.866-60.812a5.4 5.4 0 0 1 0-7.879l64.866-60.812a5.4 5.4 0 0 1 7.633.246l19.579 20.885a5.4 5.4 0 0 1-.372 7.747L101.65 336l40.763 35.874a5.4 5.4 0 0 1 .372 7.747l-19.579 20.884zm51.295 50.479l-27.453-7.97a5.402 5.402 0 0 1-3.681-6.692l61.44-211.626a5.402 5.402 0 0 1 6.692-3.681l27.452 7.97a5.4 5.4 0 0 1 3.68 6.692l-61.44 211.626a5.397 5.397 0 0 1-6.69 3.681zm160.792-111.045l-64.866 60.812a5.4 5.4 0 0 1-7.633-.246l-19.58-20.885a5.4 5.4 0 0 1 .372-7.747L284.35 336l-40.763-35.874a5.4 5.4 0 0 1-.372-7.747l19.58-20.885a5.4 5.4 0 0 1 7.633-.246l64.866 60.812a5.4 5.4 0 0 1-.001 7.879z"></path>
  </svg>
  <g opacity="100%">
    <text x="105" y="125" font-family="Roboto" font-size="20" fill="#fff" letter-spacing="0" font-weight="600" font-style="normal">JavaScript Code</text>
  </g>
  <g opacity="100%">
    <text x="105" y="146.5" font-family="Roboto" font-size="14" fill="#94a3b8" letter-spacing="0" font-weight="normal" font-style="normal">Snippet for data processing</text>
  </g>
  <g opacity="100%">
    <rect filter="url(#filter_dshadow_0_0_0_00000014)" x="286" y="169" width="63" height="36" fill="#32bc9b" stroke="#e5e7eb" stroke-width="0" rx="18"></rect>
    <text x="302" y="191.5" font-family="Roboto" font-size="14" fill="#fff" letter-spacing="0" font-weight="700" font-style="normal">
      <tspan>View</tspan>
    </text>
  </g>
  <g opacity="100%">
    <rect filter="url(#filter_dshadow_0_0_0_00000014)" x="357" y="169" width="95" height="36" fill="#ff784b" stroke="#e5e7eb" stroke-width="0" rx="18"></rect>
    <text x="373.5" y="191.5" font-family="Roboto" font-size="14" fill="#fff" letter-spacing="0" font-weight="700" font-style="normal">
      <tspan>Download</tspan>
    </text>
  </g>
  <g opacity="100%">
    <rect x="491" y="87" width="444" height="789" fill="#0f3460" stroke="#e5e7eb" stroke-width="0" rx="8" filter="url(#filter_dshadow_6_0_4_0000001a)"></rect>
  </g>
  <g opacity="100%">
    <rect x="507" y="103" width="50" height="50" fill="#ff784b" stroke="#e5e7eb" stroke-width="0" rx="25" filter="url(#filter_dshadow_0_0_0_00000014)"></rect>
  </g>
  <svg xmlns="http://www.w3.org/2000/svg" viewBox="0 0 384 512" width="13" height="13" fill="#fff" x="526" y="121.5" opacity="100%">
    <path d="M181.9 256.1c-5-16-4.9-46.9-2-46.9 8.4 0 7.6 36.9 2 46.9zm-1.7 47.2c-7.7 20.2-17.3 43.3-28.4 62.7 18.3-7 39-17.2 62.9-21.9-12.7-9.6-24.9-23.4-34.5-40.8zM86.1 428.1c0 .8 13.2-5.4 34.9-40.2-6.7 6.3-29.1 24.5-34.9 40.2zM248 160h136v328c0 13.3-10.7 24-24 24H24c-13.3 0-24-10.7-24-24V24C0 10.7 10.7 0 24 0h200v136c0 13.2 10.8 24 24 24zm-8 171.8c-20-12.2-33.3-29-42.7-53.8 4.5-18.5 11.6-46.6 6.2-64.2-4.7-29.4-42.4-26.5-47.8-6.8-5 18.3-.4 44.1 8.1 77-11.6 27.6-28.7 64.6-40.8 85.8-.1 0-.1.1-.2.1-27.1 13.9-73.6 44.5-54.5 68 5.6 6.9 16 10 21.5 10 17.9 0 35.7-18 61.1-61.8 25.8-8.5 54.1-19.1 79-23.2 21.7 11.8 47.1 19.5 64 19.5 29.2 0 31.2-32 19.7-43.4-13.9-13.6-54.3-9.7-73.6-7.2zM377 105L279 7c-4.5-4.5-10.6-7-17-7h-6v128h128v-6.1c0-6.3-2.5-12.4-7-16.9zm-74.1 255.3c4.1-2.7-2.5-11.9-42.8-9 37.1 15.8 42.8 9 42.8 9z"></path>
  </svg>
  <g opacity="100%">
    <text x="573" y="125" font-family="Roboto" font-size="20" fill="#fff" letter-spacing="0" font-weight="600" font-style="normal">Project Report</text>
  </g>
  <g opacity="100%">
    <text x="573" y="146.5" font-family="Roboto" font-size="14" fill="#94a3b8" letter-spacing="0" font-weight="normal" font-style="normal">Detailed analysis of Q1</text>
  </g>
  <g opacity="100%">
    <rect filter="url(#filter_dshadow_0_0_0_00000014)" x="753" y="169" width="63" height="36" fill="#32bc9b" stroke="#e5e7eb" stroke-width="0" rx="18"></rect>
    <text x="769" y="191.5" font-family="Roboto" font-size="14" fill="#fff" letter-spacing="0" font-weight="700" font-style="normal">
      <tspan>View</tspan>
    </text>
  </g>
  <g opacity="100%">
    <rect filter="url(#filter_dshadow_0_0_0_00000014)" x="824" y="169" width="95" height="36" fill="#ff784b" stroke="#e5e7eb" stroke-width="0" rx="18"></rect>
    <text x="840.5" y="191.5" font-family="Roboto" font-size="14" fill="#fff" letter-spacing="0" font-weight="700" font-style="normal">
      <tspan>Download</tspan>
    </text>
  </g>
  <g opacity="100%">
    <rect x="958" y="87" width="444" height="789" fill="#0f3460" stroke="#e5e7eb" stroke-width="0" rx="8" filter="url(#filter_dshadow_6_0_4_0000001a)"></rect>
  </g>
  <g opacity="100%">
    <rect x="974" y="103" width="50" height="50" fill="#32bc9b" stroke="#e5e7eb" stroke-width="0" rx="25" filter="url(#filter_dshadow_0_0_0_00000014)"></rect>
  </g>
  <svg xmlns="http://www.w3.org/2000/svg" viewBox="0 0 384 512" width="13" height="13" fill="#fff" x="993" y="121.5" opacity="100%">
    <path d="M224 136V0H24C10.7 0 0 10.7 0 24v464c0 13.3 10.7 24 24 24h336c13.3 0 24-10.7 24-24V160H248c-13.2 0-24-10.8-24-24zm64 236c0 6.6-5.4 12-12 12H108c-6.6 0-12-5.4-12-12v-8c0-6.6 5.4-12 12-12h168c6.6 0 12 5.4 12 12v8zm0-64c0 6.6-5.4 12-12 12H108c-6.6 0-12-5.4-12-12v-8c0-6.6 5.4-12 12-12h168c6.6 0 12 5.4 12 12v8zm0-72v8c0 6.6-5.4 12-12 12H108c-6.6 0-12-5.4-12-12v-8c0-6.6 5.4-12 12-12h168c6.6 0 12 5.4 12 12zm96-114.1v6.1H256V0h6.1c6.4 0 12.5 2.5 17 7l97.9 98c4.5 4.5 7 10.6 7 16.9z"></path>
  </svg>
  <g opacity="100%" mask="url(#mask_d9sh3rfyc)">
    <text x="1040" y="125" font-family="Roboto" font-size="20" fill="#fff" letter-spacing="0" font-weight="600" font-style="normal">AI Generated</text>
    <text x="1040" y="153" font-family="Roboto" font-size="20" fill="#fff" letter-spacing="0" font-weight="600" font-style="normal">Notes</text>
    <defs>
      <mask id="mask_d9sh3rfyc">
        <rect x="1040" y="104" width="175" height="29" fill="white"></rect>
      </mask>
    </defs>
  </g>
  <g opacity="100%">
    <text x="1040" y="146.5" font-family="Roboto" font-size="14" fill="#94a3b8" letter-spacing="0" font-weight="normal" font-style="normal">Meeting summary</text>
  </g>
  <g opacity="100%">
    <rect filter="url(#filter_dshadow_0_0_0_00000014)" x="1220" y="169" width="63" height="36" fill="#32bc9b" stroke="#e5e7eb" stroke-width="0" rx="18"></rect>
    <text x="1236" y="191.5" font-family="Roboto" font-size="14" fill="#fff" letter-spacing="0" font-weight="700" font-style="normal">
      <tspan>View</tspan>
    </text>
  </g>
  <g opacity="100%">
    <rect filter="url(#filter_dshadow_0_0_0_00000014)" x="1291" y="169" width="95" height="36" fill="#ff784b" stroke="#e5e7eb" stroke-width="0" rx="18"></rect>
    <text x="1307.5" y="191.5" font-family="Roboto" font-size="14" fill="#fff" letter-spacing="0" font-weight="700" font-style="normal">
      <tspan>Download</tspan>
    </text>
  </g>
  <defs>
    <filter id="filter_dshadow_0_0_0_00000014" color-interpolation-filters="sRGB" filterUnits="userSpaceOnUse">
      <feFlood flood-opacity="0" result="bg-fix"></feFlood>
      <feColorMatrix in="SourceAlpha" type="matrix" values="0 0 0 0 0 0 0 0 0 0 0 0 0 0 0 0 0 0 127 0" result="alpha"></feColorMatrix>
      <feOffset dx="0" dy="0"></feOffset>
      <feGaussianBlur stdDeviation="0"></feGaussianBlur>
      <feComposite in2="alpha" operator="out"></feComposite>
      <feColorMatrix type="matrix" values="0 0 0 0 0 0 0 0 0 0 0 0 0 0 0 0 0 0 0.08 0"></feColorMatrix>
      <feBlend mode="normal" in2="bg-fix" result="bg-fix-filter_dshadow_0_0_0_00000014"></feBlend>
      <feBlend in="SourceGraphic" in2="bg-fix-filter_dshadow_0_0_0_00000014" result="shape"></feBlend>
    </filter>
    <filter id="filter_dshadow_6_0_4_0000001a" color-interpolation-filters="sRGB" filterUnits="userSpaceOnUse">
      <feFlood flood-opacity="0" result="bg-fix"></feFlood>
      <feColorMatrix in="SourceAlpha" type="matrix" values="0 0 0 0 0 0 0 0 0 0 0 0 0 0 0 0 0 0 127 0" result="alpha"></feColorMatrix>
      <feOffset dx="0" dy="4"></feOffset>
      <feGaussianBlur stdDeviation="3"></feGaussianBlur>
      <feComposite in2="alpha" operator="out"></feComposite>
      <feColorMatrix type="matrix" values="0 0 0 0 0 0 0 0 0 0 0 0 0 0 0 0 0 0 0.1 0"></feColorMatrix>
      <feBlend mode="normal" in2="bg-fix" result="bg-fix-filter_dshadow_6_0_4_0000001a"></feBlend>
      <feBlend in="SourceGraphic" in2="bg-fix-filter_dshadow_6_0_4_0000001a" result="shape"></feBlend>
    </filter>
    <style id="google">@import url(https://fonts.googleapis.com/css2?family=Roboto:ital,wght@0,100;0,300;0,400;0,500;0,700;0,900;1,100;1,300;1,400;1,500;1,700;1,900&amp;display=swap);
</style>
    <style id="brand"></style>
  </defs>
</svg>
