
<svg xmlns="http://www.w3.org/2000/svg" xmlns:xlink="http://www.w3.org/1999/xlink" viewBox="0 0 1440 900" width="1440" height="900" fill="none">
  <rect width="1440" height="900" fill="#1a1a2e"></rect>
  <g opacity="100%">
    <rect x="-1" y="0" width="1440" height="60" fill="#16213e" filter="url(#filter_dshadow_0_0_0_00000014)"></rect>
    <rect x="-1" y="59.122807" width="1440" height="0.877193" fill="#e5e7eb"></rect>
  </g>
  <svg xmlns="http://www.w3.org/2000/svg" viewBox="0 0 640 512" width="16" height="16" fill="#32bc9b" x="24" y="20" opacity="100%">
    <path d="M9.375 233.4C3.375 239.4 0 247.5 0 256v128c0 8.5 3.375 16.62 9.375 22.62S23.5 416 32 416h32V224H32C23.5 224 15.38 227.4 9.375 233.4zM464 96H352V32c0-17.62-14.38-32-32-32S288 14.38 288 32v64H176C131.8 96 96 131.8 96 176V448c0 35.38 28.62 64 64 64h320c35.38 0 64-28.62 64-64V176C544 131.8 508.3 96 464 96zM256 416H192v-32h64V416zM224 296C201.9 296 184 278.1 184 256S201.9 216 224 216S264 233.9 264 256S246.1 296 224 296zM352 416H288v-32h64V416zM448 416h-64v-32h64V416zM416 296c-22.12 0-40-17.88-40-40S393.9 216 416 216S456 233.9 456 256S438.1 296 416 296zM630.6 233.4C624.6 227.4 616.5 224 608 224h-32v192h32c8.5 0 16.62-3.375 22.62-9.375S640 392.5 640 384V256C640 247.5 636.6 239.4 630.6 233.4z"></path>
  </svg>
  <g opacity="100%" mask="url(#mask_tasy07mt4)">
    <text x="50" y="35" font-family="Roboto" font-size="20" fill="#fff" letter-spacing="0" font-weight="700" font-style="normal">AI</text>
    <text x="50" y="59" font-family="Roboto" font-size="20" fill="#fff" letter-spacing="0" font-weight="700" font-style="normal">Assistant</text>
    <defs>
      <mask id="mask_tasy07mt4">
        <rect x="50" y="16" width="113" height="24" fill="white"></rect>
      </mask>
    </defs>
  </g>
  <g opacity="100%" mask="url(#mask_zupxlxux)">
    <text x="841" y="33" font-family="Roboto" font-size="16" fill="#fff" letter-spacing="0" font-weight="500" font-style="normal">Chat</text>
    <text x="841" y="52" font-family="Roboto" font-size="16" fill="#fff" letter-spacing="0" font-weight="500" font-style="normal"></text>
    <defs>
      <mask id="mask_zupxlxux">
        <rect x="841" y="18" width="38" height="19" fill="white"></rect>
      </mask>
    </defs>
  </g>
  <g opacity="100%" mask="url(#mask_vp5p6a3u8m)">
    <text x="897" y="33" font-family="Roboto" font-size="16" fill="#fff" letter-spacing="0" font-weight="500" font-style="normal">Project</text>
    <text x="897" y="52" font-family="Roboto" font-size="16" fill="#fff" letter-spacing="0" font-weight="500" font-style="normal"></text>
    <defs>
      <mask id="mask_vp5p6a3u8m">
        <rect x="897" y="18" width="56" height="19" fill="white"></rect>
      </mask>
    </defs>
  </g>
  <g opacity="100%" mask="url(#mask_z14nsteasm)">
    <text x="972" y="33" font-family="Roboto" font-size="16" fill="#fff" letter-spacing="0" font-weight="500" font-style="normal">Artifact</text>
    <text x="972" y="52" font-family="Roboto" font-size="16" fill="#fff" letter-spacing="0" font-weight="500" font-style="normal"></text>
    <defs>
      <mask id="mask_z14nsteasm">
        <rect x="972" y="18" width="59" height="19" fill="white"></rect>
      </mask>
    </defs>
  </g>
  <g opacity="100%" mask="url(#mask_ubhuj4h5z)">
    <text x="1050" y="33" font-family="Roboto" font-size="16" fill="#fff" letter-spacing="0" font-weight="500" font-style="normal">Notes</text>
    <text x="1050" y="52" font-family="Roboto" font-size="16" fill="#fff" letter-spacing="0" font-weight="500" font-style="normal"></text>
    <defs>
      <mask id="mask_ubhuj4h5z">
        <rect x="1050" y="18" width="47" height="19" fill="white"></rect>
      </mask>
    </defs>
  </g>
  <g opacity="100%" mask="url(#mask_2qacolyh4h)">
    <text x="1116" y="33" font-family="Roboto" font-size="16" fill="#fff" letter-spacing="0" font-weight="500" font-style="normal">Other Tools</text>
    <text x="1116" y="52" font-family="Roboto" font-size="16" fill="#fff" letter-spacing="0" font-weight="500" font-style="normal"></text>
    <defs>
      <mask id="mask_2qacolyh4h">
        <rect x="1116" y="18" width="88" height="19" fill="white"></rect>
      </mask>
    </defs>
  </g>
  <g opacity="100%">
    <text x="1225" y="33" font-family="Roboto" font-size="16" fill="#fff" letter-spacing="0" font-weight="500" font-style="normal">Model Settings</text>
  </g>
  <g opacity="100%">
    <rect filter="url(#filter_dshadow_0_0_0_00000014)" x="1240" y="37" width="57" height="27" fill="#32bc9b" stroke="#e5e7eb" stroke-width="0" rx="13.5"></rect>
    <text x="1252" y="56" font-family="Roboto" font-size="16" fill="#1a1a2e" letter-spacing="0" font-weight="500" font-style="normal">
      <tspan>Help</tspan>
    </text>
  </g>
  <g opacity="100%" mask="url(#mask_rsddwfplz8)">
    <text x="1355" y="33" font-family="Roboto" font-size="16" fill="#fff" letter-spacing="0" font-weight="500" font-style="normal">Settings</text>
    <text x="1355" y="52" font-family="Roboto" font-size="16" fill="#fff" letter-spacing="0" font-weight="500" font-style="normal"></text>
    <defs>
      <mask id="mask_rsddwfplz8">
        <rect x="1355" y="18" width="64" height="19" fill="white"></rect>
      </mask>
    </defs>
  </g>
  <g opacity="100%">
    <rect x="0" y="58" width="288" height="840" fill="#0f3460" stroke="#e5e7eb" stroke-width="0" rx="0" filter="url(#filter_dshadow_0_0_0_00000014)"></rect>
  </g>
  <svg xmlns="http://www.w3.org/2000/svg" viewBox="0 0 640 512" width="16" height="16" fill="#32bc9b" x="23" y="88" opacity="100%">
    <path d="M416 176C416 78.8 322.9 0 208 0S0 78.8 0 176c0 39.57 15.62 75.96 41.67 105.4c-16.39 32.76-39.23 57.32-39.59 57.68c-2.1 2.205-2.67 5.475-1.441 8.354C1.9 350.3 4.602 352 7.66 352c38.35 0 70.76-11.12 95.74-24.04C134.2 343.1 169.8 352 208 352C322.9 352 416 273.2 416 176zM599.6 443.7C624.8 413.9 640 376.6 640 336C640 238.8 554 160 448 160c-.3145 0-.6191 .041-.9336 .043C447.5 165.3 448 170.6 448 176c0 98.62-79.68 181.2-186.1 202.5C282.7 455.1 357.1 512 448 512c33.69 0 65.32-8.008 92.85-21.98C565.2 502 596.1 512 632.3 512c3.059 0 5.76-1.725 7.02-4.605c1.229-2.879 .6582-6.148-1.441-8.354C637.6 498.7 615.9 475.3 599.6 443.7z"></path>
  </svg>
  <g opacity="100%" mask="url(#mask_47byxvg33a)">
    <text x="50" y="101.5" font-family="Roboto" font-size="18" fill="#fff" letter-spacing="0" font-weight="500" font-style="normal">Chat</text>
    <text x="50" y="122.5" font-family="Roboto" font-size="18" fill="#fff" letter-spacing="0" font-weight="500" font-style="normal"></text>
    <defs>
      <mask id="mask_47byxvg33a">
        <rect x="50" y="85" width="43" height="21" fill="white"></rect>
      </mask>
    </defs>
  </g>
  <svg xmlns="http://www.w3.org/2000/svg" viewBox="0 0 512 512" width="16" height="16" fill="#32bc9b" x="22" y="132" opacity="100%">
    <path d="M152.1 38.16C161.9 47.03 162.7 62.2 153.8 72.06L81.84 152.1C77.43 156.9 71.21 159.8 64.63 159.1C58.05 160.2 51.69 157.6 47.03 152.1L7.029 112.1C-2.343 103.6-2.343 88.4 7.029 79.03C16.4 69.66 31.6 69.66 40.97 79.03L63.08 101.1L118.2 39.94C127 30.09 142.2 29.29 152.1 38.16V38.16zM152.1 198.2C161.9 207 162.7 222.2 153.8 232.1L81.84 312.1C77.43 316.9 71.21 319.8 64.63 319.1C58.05 320.2 51.69 317.6 47.03 312.1L7.029 272.1C-2.343 263.6-2.343 248.4 7.029 239C16.4 229.7 31.6 229.7 40.97 239L63.08 261.1L118.2 199.9C127 190.1 142.2 189.3 152.1 198.2V198.2zM224 96C224 78.33 238.3 64 256 64H480C497.7 64 512 78.33 512 96C512 113.7 497.7 128 480 128H256C238.3 128 224 113.7 224 96V96zM224 256C224 238.3 238.3 224 256 224H480C497.7 224 512 238.3 512 256C512 273.7 497.7 288 480 288H256C238.3 288 224 273.7 224 256zM160 416C160 398.3 174.3 384 192 384H480C497.7 384 512 398.3 512 416C512 433.7 497.7 448 480 448H192C174.3 448 160 433.7 160 416zM0 416C0 389.5 21.49 368 48 368C74.51 368 96 389.5 96 416C96 442.5 74.51 464 48 464C21.49 464 0 442.5 0 416z"></path>
  </svg>
  <g opacity="100%" mask="url(#mask_d29h5hvjbj)">
    <text x="46" y="145.5" font-family="Roboto" font-size="18" fill="#fff" letter-spacing="0" font-weight="500" font-style="normal">Project</text>
    <text x="46" y="166.5" font-family="Roboto" font-size="18" fill="#fff" letter-spacing="0" font-weight="500" font-style="normal"></text>
    <defs>
      <mask id="mask_d29h5hvjbj">
        <rect x="46" y="129" width="62" height="21" fill="white"></rect>
      </mask>
    </defs>
  </g>
  <svg xmlns="http://www.w3.org/2000/svg" viewBox="0 0 384 512" width="12" height="12" fill="#32bc9b" x="22" y="178" opacity="100%">
    <path d="M0 64C0 28.65 28.65 0 64 0H224V128C224 145.7 238.3 160 256 160H384V448C384 483.3 355.3 512 320 512H64C28.65 512 0 483.3 0 448V64zM256 128V0L384 128H256z"></path>
  </svg>
  <g opacity="100%" mask="url(#mask_vc85zg2zhb)">
    <text x="42" y="191.5" font-family="Roboto" font-size="18" fill="#fff" letter-spacing="0" font-weight="500" font-style="normal">Artifac</text>
    <text x="42" y="212.5" font-family="Roboto" font-size="18" fill="#fff" letter-spacing="0" font-weight="500" font-style="normal">t</text>
    <defs>
      <mask id="mask_vc85zg2zhb">
        <rect x="42" y="175" width="65" height="21" fill="white"></rect>
      </mask>
    </defs>
  </g>
  <svg xmlns="http://www.w3.org/2000/svg" viewBox="0 0 448 512" width="14" height="14" fill="#32bc9b" x="22" y="221" opacity="100%">
    <path d="M400 32h-352C21.49 32 0 53.49 0 80v352C0 458.5 21.49 480 48 480h245.5c16.97 0 33.25-6.744 45.26-18.75l90.51-90.51C441.3 358.7 448 342.5 448 325.5V80C448 53.49 426.5 32 400 32zM64 96h320l-.001 224H320c-17.67 0-32 14.33-32 32v64H64V96z"></path>
  </svg>
  <g opacity="100%" mask="url(#mask_jcc3wf29pq)">
    <text x="44" y="233.5" font-family="Roboto" font-size="18" fill="#fff" letter-spacing="0" font-weight="500" font-style="normal">Notes</text>
    <text x="44" y="254.5" font-family="Roboto" font-size="18" fill="#fff" letter-spacing="0" font-weight="500" font-style="normal"></text>
    <defs>
      <mask id="mask_jcc3wf29pq">
        <rect x="44" y="217" width="53" height="21" fill="white"></rect>
      </mask>
    </defs>
  </g>
  <svg xmlns="http://www.w3.org/2000/svg" viewBox="0 0 512 512" width="16" height="16" fill="#32bc9b" x="22" y="264" opacity="100%">
    <path d="M331.8 224.1c28.29 0 54.88 10.99 74.86 30.97l19.59 19.59c40.01-17.74 71.25-53.3 81.62-96.65c5.725-23.92 5.34-47.08 .2148-68.4c-2.613-10.88-16.43-14.51-24.34-6.604l-68.9 68.9h-75.6V97.2l68.9-68.9c7.912-7.912 4.275-21.73-6.604-24.34c-21.32-5.125-44.48-5.51-68.4 .2148c-55.3 13.23-98.39 60.22-107.2 116.4C224.5 128.9 224.2 137 224.3 145l82.78 82.86C315.2 225.1 323.5 224.1 331.8 224.1zM384 278.6c-23.16-23.16-57.57-27.57-85.39-13.9L191.1 158L191.1 95.99l-127.1-95.99L0 63.1l96 127.1l62.04 .0077l106.7 106.6c-13.67 27.82-9.251 62.23 13.91 85.39l117 117.1c14.62 14.5 38.21 14.5 52.71-.0016l52.75-52.75c14.5-14.5 14.5-38.08-.0016-52.71L384 278.6zM227.9 307L168.7 247.9l-148.9 148.9c-26.37 26.37-26.37 69.08 0 95.45C32.96 505.4 50.21 512 67.5 512s34.54-6.592 47.72-19.78l119.1-119.1C225.5 352.3 222.6 329.4 227.9 307zM64 472c-13.25 0-24-10.75-24-24c0-13.26 10.75-24 24-24S88 434.7 88 448C88 461.3 77.25 472 64 472z"></path>
  </svg>
  <g opacity="100%" mask="url(#mask_fu8cz2x1w)">
    <text x="46" y="277.5" font-family="Roboto" font-size="18" fill="#fff" letter-spacing="0" font-weight="500" font-style="normal">Other</text>
    <text x="46" y="298.5" font-family="Roboto" font-size="18" fill="#fff" letter-spacing="0" font-weight="500" font-style="normal">Tools</text>
    <defs>
      <mask id="mask_fu8cz2x1w">
        <rect x="46" y="261" width="97" height="21" fill="white"></rect>
      </mask>
    </defs>
  </g>
  <svg xmlns="http://www.w3.org/2000/svg" viewBox="0 0 640 512" width="16" height="16" fill="#32bc9b" x="24" y="308" opacity="100%">
    <path d="M286.3 155.1C287.4 161.9 288 168.9 288 175.1C288 183.1 287.4 190.1 286.3 196.9L308.5 216.7C315.5 223 318.4 232.1 314.7 241.7C312.4 246.1 309.9 252.2 307.1 257.2L304 262.6C300.1 267.6 297.7 272.4 294.2 277.1C288.5 284.7 278.5 287.2 269.5 284.2L241.2 274.9C230.5 283.8 218.3 290.9 205 295.9L198.1 324.9C197 334.2 189.8 341.6 180.4 342.8C173.7 343.6 166.9 344 160 344C153.1 344 146.3 343.6 139.6 342.8C130.2 341.6 122.1 334.2 121 324.9L114.1 295.9C101.7 290.9 89.5 283.8 78.75 274.9L50.53 284.2C41.54 287.2 31.52 284.7 25.82 277.1C22.28 272.4 18.98 267.5 15.94 262.5L12.92 257.2C10.13 252.2 7.592 247 5.324 241.7C1.62 232.1 4.458 223 11.52 216.7L33.7 196.9C32.58 190.1 31.1 183.1 31.1 175.1C31.1 168.9 32.58 161.9 33.7 155.1L11.52 135.3C4.458 128.1 1.62 119 5.324 110.3C7.592 104.1 10.13 99.79 12.91 94.76L15.95 89.51C18.98 84.46 22.28 79.58 25.82 74.89C31.52 67.34 41.54 64.83 50.53 67.79L78.75 77.09C89.5 68.25 101.7 61.13 114.1 56.15L121 27.08C122.1 17.8 130.2 10.37 139.6 9.231C146.3 8.418 153.1 8 160 8C166.9 8 173.7 8.418 180.4 9.23C189.8 10.37 197 17.8 198.1 27.08L205 56.15C218.3 61.13 230.5 68.25 241.2 77.09L269.5 67.79C278.5 64.83 288.5 67.34 294.2 74.89C297.7 79.56 300.1 84.42 304 89.44L307.1 94.83C309.9 99.84 312.4 105 314.7 110.3C318.4 119 315.5 128.1 308.5 135.3L286.3 155.1zM160 127.1C133.5 127.1 112 149.5 112 175.1C112 202.5 133.5 223.1 160 223.1C186.5 223.1 208 202.5 208 175.1C208 149.5 186.5 127.1 160 127.1zM484.9 478.3C478.1 479.4 471.1 480 464 480C456.9 480 449.9 479.4 443.1 478.3L423.3 500.5C416.1 507.5 407 510.4 398.3 506.7C393 504.4 387.8 501.9 382.8 499.1L377.4 496C372.4 492.1 367.6 489.7 362.9 486.2C355.3 480.5 352.8 470.5 355.8 461.5L365.1 433.2C356.2 422.5 349.1 410.3 344.1 397L315.1 390.1C305.8 389 298.4 381.8 297.2 372.4C296.4 365.7 296 358.9 296 352C296 345.1 296.4 338.3 297.2 331.6C298.4 322.2 305.8 314.1 315.1 313L344.1 306.1C349.1 293.7 356.2 281.5 365.1 270.8L355.8 242.5C352.8 233.5 355.3 223.5 362.9 217.8C367.6 214.3 372.5 210.1 377.5 207.9L382.8 204.9C387.8 202.1 392.1 199.6 398.3 197.3C407 193.6 416.1 196.5 423.3 203.5L443.1 225.7C449.9 224.6 456.9 224 464 224C471.1 224 478.1 224.6 484.9 225.7L504.7 203.5C511 196.5 520.1 193.6 529.7 197.3C535 199.6 540.2 202.1 545.2 204.9L550.5 207.9C555.5 210.1 560.4 214.3 565.1 217.8C572.7 223.5 575.2 233.5 572.2 242.5L562.9 270.8C571.8 281.5 578.9 293.7 583.9 306.1L612.9 313C622.2 314.1 629.6 322.2 630.8 331.6C631.6 338.3 632 345.1 632 352C632 358.9 631.6 365.7 630.8 372.4C629.6 381.8 622.2 389 612.9 390.1L583.9 397C578.9 410.3 571.8 422.5 562.9 433.2L572.2 461.5C575.2 470.5 572.7 480.5 565.1 486.2C560.4 489.7 555.6 492.1 550.6 496L545.2 499.1C540.2 501.9 534.1 504.4 529.7 506.7C520.1 510.4 511 507.5 504.7 500.5L484.9 478.3zM512 352C512 325.5 490.5 304 464 304C437.5 304 416 325.5 416 352C416 378.5 437.5 400 464 400C490.5 400 512 378.5 512 352z"></path>
  </svg>
  <g opacity="100%" mask="url(#mask_926yka4eyj)">
    <text x="50" y="321.5" font-family="Roboto" font-size="18" fill="#fff" letter-spacing="0" font-weight="500" font-style="normal">Model Settings</text>
    <text x="50" y="342.5" font-family="Roboto" font-size="18" fill="#fff" letter-spacing="0" font-weight="500" font-style="normal"></text>
    <defs>
      <mask id="mask_926yka4eyj">
        <rect x="50" y="305" width="127" height="21" fill="white"></rect>
      </mask>
    </defs>
  </g>
  <svg xmlns="http://www.w3.org/2000/svg" viewBox="0 0 512 512" width="16" height="16" fill="#32bc9b" x="22" y="352" opacity="100%">
    <path d="M0 416C0 398.3 14.33 384 32 384H86.66C99 355.7 127.2 336 160 336C192.8 336 220.1 355.7 233.3 384H480C497.7 384 512 398.3 512 416C512 433.7 497.7 448 480 448H233.3C220.1 476.3 192.8 496 160 496C127.2 496 99 476.3 86.66 448H32C14.33 448 0 433.7 0 416V416zM192 416C192 398.3 177.7 384 160 384C142.3 384 128 398.3 128 416C128 433.7 142.3 448 160 448C177.7 448 192 433.7 192 416zM352 176C384.8 176 412.1 195.7 425.3 224H480C497.7 224 512 238.3 512 256C512 273.7 497.7 288 480 288H425.3C412.1 316.3 384.8 336 352 336C319.2 336 291 316.3 278.7 288H32C14.33 288 0 273.7 0 256C0 238.3 14.33 224 32 224H278.7C291 195.7 319.2 176 352 176zM384 256C384 238.3 369.7 224 352 224C334.3 224 320 238.3 320 256C320 273.7 334.3 288 352 288C369.7 288 384 273.7 384 256zM480 64C497.7 64 512 78.33 512 96C512 113.7 497.7 128 480 128H265.3C252.1 156.3 224.8 176 192 176C159.2 176 131 156.3 118.7 128H32C14.33 128 0 113.7 0 96C0 78.33 14.33 64 32 64H118.7C131 35.75 159.2 16 192 16C224.8 16 252.1 35.75 265.3 64H480zM160 96C160 113.7 174.3 128 192 128C209.7 128 224 113.7 224 96C224 78.33 209.7 64 192 64C174.3 64 160 78.33 160 96z"></path>
  </svg>
  <g opacity="100%" mask="url(#mask_6a3p2ihfnq)">
    <text x="46" y="366.5" font-family="Roboto" font-size="18" fill="#fff" letter-spacing="0" font-weight="500" font-style="normal">Settings</text>
    <text x="46" y="387.5" font-family="Roboto" font-size="18" fill="#fff" letter-spacing="0" font-weight="500" font-style="normal"></text>
    <defs>
      <mask id="mask_6a3p2ihfnq">
        <rect x="46" y="350" width="72" height="21" fill="white"></rect>
      </mask>
    </defs>
  </g>
  <g opacity="100%">
    <rect x="286" y="58" width="1152" height="840" fill="#1a1a2e" stroke="#e5e7eb" stroke-width="0" rx="0" filter="url(#filter_dshadow_0_0_0_00000014)"></rect>
  </g>
  <g opacity="100%">
    <rect x="325" y="88" width="1088" height="789" fill="#0f3460" stroke="#e5e7eb" stroke-width="0" rx="12" filter="url(#filter_dshadow_15_0_10_0000001a)"></rect>
  </g>
  <g opacity="100%">
    <rect x="870" y="106" width="528" height="345" fill="#16213e" stroke="#e5e7eb" stroke-width="0" rx="8" filter="url(#filter_dshadow_6_0_4_0000001a)"></rect>
  </g>
  <g opacity="100%">
    <text x="886" y="145" font-family="Roboto" font-size="20" fill="#fff" letter-spacing="0" font-weight="600" font-style="normal">Chat History</text>
  </g>
  <g opacity="100%">
    <rect x="886" y="164" width="480" height="72" fill="#0f3460" stroke="#e5e7eb" stroke-width="0" rx="8" filter="url(#filter_dshadow_6_0_4_0000001a)"></rect>
  </g>
  <g opacity="100%" mask="url(#mask_7m2nu3ry0k)">
    <text x="897" y="206.5" font-family="Roboto" font-size="18" fill="#e0e0e0" letter-spacing="0" font-weight="500" font-style="normal">Project Discussion -</text>
    <text x="897" y="227.5" font-family="Roboto" font-size="18" fill="#e0e0e0" letter-spacing="0" font-weight="500" font-style="normal">Sprint 1</text>
    <defs>
      <mask id="mask_7m2nu3ry0k">
        <rect x="897" y="190" width="200" height="21" fill="white"></rect>
      </mask>
    </defs>
  </g>
  <g opacity="100%">
    <rect x="886" y="266" width="480" height="72" fill="#0f3460" stroke="#e5e7eb" stroke-width="0" rx="8" filter="url(#filter_dshadow_6_0_4_0000001a)"></rect>
  </g>
  <g opacity="100%">
    <text x="900" y="306.5" font-family="Roboto" font-size="18" fill="#e0e0e0" letter-spacing="0" font-weight="500" font-style="normal">Weekly Team Meeting</text>
    <text x="900" y="327.5" font-family="Roboto" font-size="18" fill="#e0e0e0" letter-spacing="0" font-weight="500" font-style="normal">Notes</text>
  </g>
  <g opacity="100%">
    <rect filter="url(#filter_dshadow_0_0_0_00000014)" x="886" y="378" width="480" height="36" fill="#ff784b" stroke="#e5e7eb" stroke-width="0" rx="18"></rect>
    <text x="1078.5" y="400.5" font-family="Roboto" font-size="14" fill="#fff" letter-spacing="0" font-weight="700" font-style="normal">
      <tspan>Start New Chat</tspan>
    </text>
  </g>
  <g opacity="100%">
    <rect filter="url(#filter_dshadow_0_0_0_00000014)" x="886" y="419" width="480" height="36" fill="#ff784b" stroke="#e5e7eb" stroke-width="0" rx="18"></rect>
    <text x="1104.5" y="441.5" font-family="Roboto" font-size="14" fill="#fff" letter-spacing="0" font-weight="700" font-style="normal">
      <tspan>Cancel</tspan>
    </text>
  </g>
  <g opacity="100%">
    <text x="1075" y="400.5" font-family="Roboto" font-size="14" fill="#fff" letter-spacing="0" font-weight="700" font-style="normal">
      <tspan x="1095">Loading...</tspan>
    </text>
  </g>
  <g opacity="100%">
    <text x="408" y="156" font-family="Roboto" font-size="24" fill="#fff" letter-spacing="0" font-weight="normal" font-style="normal">Welcome to DInoAir version 3!</text>
  </g>
  <defs>
    <filter id="filter_dshadow_0_0_0_00000014" color-interpolation-filters="sRGB" filterUnits="userSpaceOnUse">
      <feFlood flood-opacity="0" result="bg-fix"></feFlood>
      <feColorMatrix in="SourceAlpha" type="matrix" values="0 0 0 0 0 0 0 0 0 0 0 0 0 0 0 0 0 0 127 0" result="alpha"></feColorMatrix>
      <feOffset dx="0" dy="0"></feOffset>
      <feGaussianBlur stdDeviation="0"></feGaussianBlur>
      <feComposite in2="alpha" operator="out"></feComposite>
      <feColorMatrix type="matrix" values="0 0 0 0 0 0 0 0 0 0 0 0 0 0 0 0 0 0 0.08 0"></feColorMatrix>
      <feBlend mode="normal" in2="bg-fix" result="bg-fix-filter_dshadow_0_0_0_00000014"></feBlend>
      <feBlend in="SourceGraphic" in2="bg-fix-filter_dshadow_0_0_0_00000014" result="shape"></feBlend>
    </filter>
    <filter id="filter_dshadow_15_0_10_0000001a" color-interpolation-filters="sRGB" filterUnits="userSpaceOnUse">
      <feFlood flood-opacity="0" result="bg-fix"></feFlood>
      <feColorMatrix in="SourceAlpha" type="matrix" values="0 0 0 0 0 0 0 0 0 0 0 0 0 0 0 0 0 0 127 0" result="alpha"></feColorMatrix>
      <feOffset dx="0" dy="10"></feOffset>
      <feGaussianBlur stdDeviation="7.5"></feGaussianBlur>
      <feComposite in2="alpha" operator="out"></feComposite>
      <feColorMatrix type="matrix" values="0 0 0 0 0 0 0 0 0 0 0 0 0 0 0 0 0 0 0.1 0"></feColorMatrix>
      <feBlend mode="normal" in2="bg-fix" result="bg-fix-filter_dshadow_15_0_10_0000001a"></feBlend>
      <feBlend in="SourceGraphic" in2="bg-fix-filter_dshadow_15_0_10_0000001a" result="shape"></feBlend>
    </filter>
    <filter id="filter_dshadow_6_0_4_0000001a" color-interpolation-filters="sRGB" filterUnits="userSpaceOnUse">
      <feFlood flood-opacity="0" result="bg-fix"></feFlood>
      <feColorMatrix in="SourceAlpha" type="matrix" values="0 0 0 0 0 0 0 0 0 0 0 0 0 0 0 0 0 0 127 0" result="alpha"></feColorMatrix>
      <feOffset dx="0" dy="4"></feOffset>
      <feGaussianBlur stdDeviation="3"></feGaussianBlur>
      <feComposite in2="alpha" operator="out"></feComposite>
      <feColorMatrix type="matrix" values="0 0 0 0 0 0 0 0 0 0 0 0 0 0 0 0 0 0 0.1 0"></feColorMatrix>
      <feBlend mode="normal" in2="bg-fix" result="bg-fix-filter_dshadow_6_0_4_0000001a"></feBlend>
      <feBlend in="SourceGraphic" in2="bg-fix-filter_dshadow_6_0_4_0000001a" result="shape"></feBlend>
    </filter>
    <style id="google">@import url(https://fonts.googleapis.com/css2?family=Roboto:ital,wght@0,100;0,300;0,400;0,500;0,700;0,900;1,100;1,300;1,400;1,500;1,700;1,900&amp;display=swap);
</style>
    <style id="brand"></style>
  </defs>
</svg>
