
<svg xmlns="http://www.w3.org/2000/svg" xmlns:xlink="http://www.w3.org/1999/xlink" viewBox="0 0 1440 900" width="1440" height="900" fill="none">
  <rect width="1440" height="900" fill="#1a1a2e"></rect>
  <g opacity="100%">
    <rect x="0" y="0" width="1440" height="60" fill="#16213e" filter="url(#filter_dshadow_0_0_0_00000014)"></rect>
    <rect x="0" y="60" width="1440" height="0" fill="#e5e7eb"></rect>
  </g>
  <svg xmlns="http://www.w3.org/2000/svg" viewBox="0 0 512 512" width="21" height="21" fill="#fff" x="24" y="19" opacity="100%">
    <path d="M476 3.2L12.5 270.6c-18.1 10.4-15.8 35.6 2.2 43.2L121 358.4l287.3-253.2c5.5-4.9 13.3 2.6 8.6 8.3L176 407v80.5c0 23.6 28.5 32.9 42.5 15.8L282 426l124.6 52.2c14.2 6 30.4-2.9 33-18.2l72-432C515 7.8 493.3-6.8 476 3.2z"></path>
  </svg>
  <g opacity="100%">
    <text x="52" y="35" font-family="Roboto" font-size="18" fill="#fff" letter-spacing="-0.45" font-weight="normal" font-style="normal">DinoAir</text>
  </g>
  <g opacity="100%">
    <rect filter="url(#filter_dshadow_0_0_0_00000014)" x="1116" y="9" width="300" height="40" fill="#15213e" rx="20" stroke="#e5e7eb" stroke-width="0"></rect>
    <text x="1124" y="34.5" font-family="Roboto" font-size="16" fill="#94a3b8" letter-spacing="0" font-weight="normal" font-style="normal">
      <tspan>Search files...</tspan>
    </text>
  </g>
  <g opacity="100%">
    <rect x="0" y="75" width="250" height="773" fill="#15213e" stroke="#e5e7eb" stroke-width="0" rx="0" filter="url(#filter_dshadow_0_0_0_00000014)"></rect>
  </g>
  <svg xmlns="http://www.w3.org/2000/svg" viewBox="0 0 512 512" width="18" height="18" fill="#fff" x="16.5" y="96" opacity="100%">
    <path d="M464 128H272l-64-64H48C21.49 64 0 85.49 0 112v288c0 26.51 21.49 48 48 48h416c26.51 0 48-21.49 48-48V176c0-26.51-21.49-48-48-48z"></path>
  </svg>
  <g opacity="100%">
    <text x="42" y="111" font-family="Roboto" font-size="18" fill="#fff" letter-spacing="0" font-weight="normal" font-style="normal">All Files</text>
  </g>
  <svg xmlns="http://www.w3.org/2000/svg" viewBox="0 0 384 512" width="14" height="14" fill="#fff" x="16" y="142" opacity="100%">
    <path d="M224 136V0H24C10.7 0 0 10.7 0 24v464c0 13.3 10.7 24 24 24h336c13.3 0 24-10.7 24-24V160H248c-13.2 0-24-10.8-24-24zm64 236c0 6.6-5.4 12-12 12H108c-6.6 0-12-5.4-12-12v-8c0-6.6 5.4-12 12-12h168c6.6 0 12 5.4 12 12v8zm0-64c0 6.6-5.4 12-12 12H108c-6.6 0-12-5.4-12-12v-8c0-6.6 5.4-12 12-12h168c6.6 0 12 5.4 12 12v8zm0-72v8c0 6.6-5.4 12-12 12H108c-6.6 0-12-5.4-12-12v-8c0-6.6 5.4-12 12-12h168c6.6 0 12 5.4 12 12zm96-114.1v6.1H256V0h6.1c6.4 0 12.5 2.5 17 7l97.9 98c4.5 4.5 7 10.6 7 16.9z"></path>
  </svg>
  <g opacity="100%">
    <text x="37" y="155" font-family="Roboto" font-size="18" fill="#fff" letter-spacing="0" font-weight="normal" font-style="normal">Documents</text>
  </g>
  <svg xmlns="http://www.w3.org/2000/svg" viewBox="0 0 512 512" width="18" height="18" fill="#fff" x="16.5" y="184" opacity="100%">
    <path d="M464 448H48c-26.51 0-48-21.49-48-48V112c0-26.51 21.49-48 48-48h416c26.51 0 48 21.49 48 48v288c0 26.51-21.49 48-48 48zM112 120c-30.928 0-56 25.072-56 56s25.072 56 56 56 56-25.072 56-56-25.072-56-56-56zM64 384h384V272l-87.515-87.515c-4.686-4.686-12.284-4.686-16.971 0L208 320l-55.515-55.515c-4.686-4.686-12.284-4.686-16.971 0L64 336v48z"></path>
  </svg>
  <g opacity="100%">
    <text x="42" y="199" font-family="Roboto" font-size="18" fill="#fff" letter-spacing="0" font-weight="normal" font-style="normal">Images</text>
  </g>
  <svg xmlns="http://www.w3.org/2000/svg" viewBox="0 0 512 512" width="18" height="18" fill="#fff" x="16.5" y="228" opacity="100%">
    <path d="M470.38 1.51L150.41 96A32 32 0 0 0 128 126.51v261.41A139 139 0 0 0 96 384c-53 0-96 28.66-96 64s43 64 96 64 96-28.66 96-64V214.32l256-75v184.61a138.4 138.4 0 0 0-32-3.93c-53 0-96 28.66-96 64s43 64 96 64 96-28.65 96-64V32a32 32 0 0 0-41.62-30.49z"></path>
  </svg>
  <g opacity="100%">
    <text x="42" y="243" font-family="Roboto" font-size="18" fill="#fff" letter-spacing="0" font-weight="normal" font-style="normal">Music</text>
  </g>
  <g opacity="100%">
    <rect x="250" y="75" width="1190" height="773" fill="#0f3460" stroke="#e5e7eb" stroke-width="0" rx="8" filter="url(#filter_dshadow_6_0_4_0000001a)"></rect>
  </g>
  <g opacity="100%">
    <text x="274" y="125.5" font-family="Roboto" font-size="24" fill="#fff" letter-spacing="0" font-weight="700" font-style="normal">File Management</text>
  </g>
  <g opacity="100%">
    <rect filter="url(#filter_dshadow_0_0_0_00000014)" x="1301" y="99" width="115" height="36" fill="#32bc9b" stroke="#e5e7eb" stroke-width="0" rx="18"></rect>
    <text x="1317" y="121.5" font-family="Roboto" font-size="14" fill="#fff" letter-spacing="0" font-weight="700" font-style="normal">
      <tspan>Add New File</tspan>
    </text>
  </g>
  <g opacity="100%">
    <rect x="274" y="151" width="1142" height="221" fill="#1a1a2e" stroke="#e5e7eb" stroke-width="0" rx="8" filter="url(#filter_dshadow_0_0_0_00000014)"></rect>
  </g>
  <g opacity="100%">
    <text x="290" y="187" font-family="Roboto" font-size="18" fill="#fff" letter-spacing="0" font-weight="normal" font-style="normal">File Name</text>
  </g>
  <g opacity="100%">
    <text x="571" y="187" font-family="Roboto" font-size="18" fill="#fff" letter-spacing="0" font-weight="normal" font-style="normal">Type</text>
  </g>
  <g opacity="100%">
    <text x="853" y="187" font-family="Roboto" font-size="18" fill="#fff" letter-spacing="0" font-weight="normal" font-style="normal">Size</text>
  </g>
  <g opacity="100%">
    <text x="1134" y="187" font-family="Roboto" font-size="18" fill="#fff" letter-spacing="0" font-weight="normal" font-style="normal">Last Accessed</text>
  </g>
  <g opacity="100%">
    <rect x="290" y="203" width="1111" height="0.877193" fill="#a9a9a9" rx="0" filter="url(#filter_dshadow_0_0_0_00000014)"></rect>
  </g>
  <g opacity="100%">
    <text x="290" y="229.5" font-family="Roboto" font-size="16" fill="#94a3b8" letter-spacing="0" font-weight="normal" font-style="normal">Project Plan.docx</text>
  </g>
  <g opacity="100%">
    <text x="571" y="229.5" font-family="Roboto" font-size="16" fill="#94a3b8" letter-spacing="0" font-weight="normal" font-style="normal">Document</text>
  </g>
  <g opacity="100%">
    <text x="853" y="229.5" font-family="Roboto" font-size="16" fill="#94a3b8" letter-spacing="0" font-weight="normal" font-style="normal">2 MB</text>
  </g>
  <g opacity="100%">
    <text x="1134" y="229.5" font-family="Roboto" font-size="16" fill="#94a3b8" letter-spacing="0" font-weight="normal" font-style="normal">2023-10-25</text>
  </g>
  <g opacity="100%">
    <rect filter="url(#filter_dshadow_0_0_0_00000014)" x="290" y="252" width="266" height="28" fill="#32bc9b" stroke="#e5e7eb" stroke-width="0" rx="14"></rect>
    <text x="405.5" y="270.5" font-family="Roboto" font-size="14" fill="#fff" letter-spacing="0" font-weight="700" font-style="normal">
      <tspan>Index</tspan>
    </text>
  </g>
  <g opacity="100%">
    <text x="290" y="305.5" font-family="Roboto" font-size="16" fill="#94a3b8" letter-spacing="0" font-weight="normal" font-style="normal">Design Mockup.png</text>
  </g>
  <g opacity="100%">
    <text x="571" y="305.5" font-family="Roboto" font-size="16" fill="#94a3b8" letter-spacing="0" font-weight="normal" font-style="normal">Image</text>
  </g>
  <g opacity="100%">
    <text x="853" y="305.5" font-family="Roboto" font-size="16" fill="#94a3b8" letter-spacing="0" font-weight="normal" font-style="normal">5 MB</text>
  </g>
  <g opacity="100%">
    <text x="1134" y="305.5" font-family="Roboto" font-size="16" fill="#94a3b8" letter-spacing="0" font-weight="normal" font-style="normal">2023-10-20</text>
  </g>
  <g opacity="100%">
    <rect filter="url(#filter_dshadow_0_0_0_00000014)" x="290" y="328" width="266" height="28" fill="#32bc9b" stroke="#e5e7eb" stroke-width="0" rx="14"></rect>
    <text x="405.5" y="346.5" font-family="Roboto" font-size="14" fill="#fff" letter-spacing="0" font-weight="700" font-style="normal">
      <tspan>Index</tspan>
    </text>
  </g>
  <g opacity="100%">
    <rect x="0" y="848" width="1440" height="52" fill="#16213e" filter="url(#filter_dshadow_0_0_0_00000014)"></rect>
    <rect x="0" y="848" width="1440" height="0" fill="#e5e7eb"></rect>
  </g>
  <g opacity="100%">
    <text x="24" y="878.5" font-family="Roboto" font-size="14" fill="#fff" letter-spacing="0" font-weight="normal" font-style="normal">© 2023 DinoAir. All rights reserved.</text>
  </g>
  <g opacity="100%" mask="url(#mask_uzapxjf47f)">
    <text x="1117" y="878.5" font-family="Roboto" font-size="14" fill="#fff" letter-spacing="0" font-weight="normal" font-style="normal">Privacy Policy</text>
    <defs>
      <mask id="mask_uzapxjf47f">
        <rect x="1117" y="864" width="87" height="17" fill="white"></rect>
      </mask>
    </defs>
  </g>
  <g opacity="100%" mask="url(#mask_v36k29m0bj)">
    <text x="1223" y="878.5" font-family="Roboto" font-size="14" fill="#fff" letter-spacing="0" font-weight="normal" font-style="normal">Terms of Service</text>
    <defs>
      <mask id="mask_v36k29m0bj">
        <rect x="1223" y="864" width="105" height="17" fill="white"></rect>
      </mask>
    </defs>
  </g>
  <g opacity="100%" mask="url(#mask_zmqww948dd)">
    <text x="1347" y="878.5" font-family="Roboto" font-size="14" fill="#fff" letter-spacing="0" font-weight="normal" font-style="normal">Contact Us</text>
    <defs>
      <mask id="mask_zmqww948dd">
        <rect x="1347" y="864" width="69" height="17" fill="white"></rect>
      </mask>
    </defs>
  </g>
  <defs>
    <filter id="filter_dshadow_0_0_0_00000014" color-interpolation-filters="sRGB" filterUnits="userSpaceOnUse">
      <feFlood flood-opacity="0" result="bg-fix"></feFlood>
      <feColorMatrix in="SourceAlpha" type="matrix" values="0 0 0 0 0 0 0 0 0 0 0 0 0 0 0 0 0 0 127 0" result="alpha"></feColorMatrix>
      <feOffset dx="0" dy="0"></feOffset>
      <feGaussianBlur stdDeviation="0"></feGaussianBlur>
      <feComposite in2="alpha" operator="out"></feComposite>
      <feColorMatrix type="matrix" values="0 0 0 0 0 0 0 0 0 0 0 0 0 0 0 0 0 0 0.08 0"></feColorMatrix>
      <feBlend mode="normal" in2="bg-fix" result="bg-fix-filter_dshadow_0_0_0_00000014"></feBlend>
      <feBlend in="SourceGraphic" in2="bg-fix-filter_dshadow_0_0_0_00000014" result="shape"></feBlend>
    </filter>
    <filter id="filter_dshadow_6_0_4_0000001a" color-interpolation-filters="sRGB" filterUnits="userSpaceOnUse">
      <feFlood flood-opacity="0" result="bg-fix"></feFlood>
      <feColorMatrix in="SourceAlpha" type="matrix" values="0 0 0 0 0 0 0 0 0 0 0 0 0 0 0 0 0 0 127 0" result="alpha"></feColorMatrix>
      <feOffset dx="0" dy="4"></feOffset>
      <feGaussianBlur stdDeviation="3"></feGaussianBlur>
      <feComposite in2="alpha" operator="out"></feComposite>
      <feColorMatrix type="matrix" values="0 0 0 0 0 0 0 0 0 0 0 0 0 0 0 0 0 0 0.1 0"></feColorMatrix>
      <feBlend mode="normal" in2="bg-fix" result="bg-fix-filter_dshadow_6_0_4_0000001a"></feBlend>
      <feBlend in="SourceGraphic" in2="bg-fix-filter_dshadow_6_0_4_0000001a" result="shape"></feBlend>
    </filter>
    <style id="google">@import url(https://fonts.googleapis.com/css2?family=Roboto:ital,wght@0,100;0,300;0,400;0,500;0,700;0,900;1,100;1,300;1,400;1,500;1,700;1,900&amp;display=swap);
</style>
    <style id="brand"></style>
  </defs>
</svg>
