
<svg xmlns="http://www.w3.org/2000/svg" xmlns:xlink="http://www.w3.org/1999/xlink" viewBox="0 0 1440 900" width="1440" height="900" fill="none">
  <rect width="1440" height="900" fill="#1a1a2e"></rect>
  <g opacity="100%">
    <rect x="0" y="0" width="1426" height="80" fill="#16213e" filter="url(#filter_dshadow_0_0_0_00000014)"></rect>
    <rect x="0" y="79.122807" width="1426" height="0.877193" fill="#e5e7eb"></rect>
  </g>
  <svg xmlns="http://www.w3.org/2000/svg" viewBox="0 0 640 512" width="37" height="37" fill="#32bc9b" x="22.5" y="20" opacity="100%">
    <path d="M18.32 255.78L192 223.96l-91.28 68.69c-10.08 10.08-2.94 27.31 11.31 27.31h222.7c-9.44-26.4-14.73-54.47-14.73-83.38v-42.27l-119.73-87.6c-23.82-15.88-55.29-14.01-77.06 4.59L5.81 227.64c-12.38 10.33-3.45 30.42 12.51 28.14zm556.87 34.1l-100.66-50.31A47.992 47.992 0 0 1 448 196.65v-36.69h64l28.09 22.63c6 6 14.14 9.37 22.63 9.37h30.97a32 32 0 0 0 28.62-17.69l14.31-28.62a32.005 32.005 0 0 0-3.02-33.51l-74.53-99.38C553.02 4.7 543.54 0 533.47 0H296.02c-7.13 0-10.7 8.57-5.66 13.61L352 63.96 292.42 88.8c-5.9 2.95-5.9 11.36 0 14.31L352 127.96v108.62c0 72.08 36.03 139.39 96 179.38-195.59 6.81-344.56 41.01-434.1 60.91C5.78 478.67 0 485.88 0 494.2 0 504 7.95 512 17.76 512h499.08c63.29.01 119.61-47.56 122.99-110.76 2.52-47.28-22.73-90.4-64.64-111.36zM489.18 66.25l45.65 11.41c-2.75 10.91-12.47 18.89-24.13 18.26-12.96-.71-25.85-12.53-21.52-29.67z"></path>
  </svg>
  <g opacity="100%" mask="url(#mask_wnj4xhsxgn)">
    <text x="72" y="46.5" font-family="Roboto" font-size="24" fill="#fff" letter-spacing="-0.6" font-weight="normal" font-style="normal">DinoAi</text>
    <text x="72" y="78.5" font-family="Roboto" font-size="24" fill="#fff" letter-spacing="-0.6" font-weight="normal" font-style="normal">r</text>
    <defs>
      <mask id="mask_wnj4xhsxgn">
        <rect x="72" y="22" width="74" height="33" fill="white"></rect>
      </mask>
    </defs>
  </g>
  <g opacity="100%">
    <rect filter="url(#filter_dshadow_0_0_0_00000014)" x="1100" y="18" width="300" height="40" fill="#15213e" rx="20" stroke="#e5e7eb" stroke-width="0"></rect>
    <text x="1108" y="43.5" font-family="Roboto" font-size="16" fill="#94a3b8" letter-spacing="0" font-weight="normal" font-style="normal">
      <tspan>Search notes...</tspan>
    </text>
  </g>
  <g opacity="100%">
    <rect x="22" y="102" width="1207" height="160" fill="#0f3460" stroke="#e5e7eb" stroke-width="0" rx="8" filter="url(#filter_dshadow_6_0_4_0000001a)"></rect>
  </g>
  <g opacity="100%">
    <text x="46" y="150.5" font-family="Roboto" font-size="24" fill="#fff" letter-spacing="0" font-weight="700" font-style="normal">Project Kickoff Meeting</text>
  </g>
  <g opacity="100%">
    <text x="46" y="183.5" font-family="Roboto" font-size="16" fill="#e0e0e0" letter-spacing="0" font-weight="normal" font-style="normal">We discussed the initial requirements and objectives for the upcoming project. The key points included setting the project timeline, identifying the core team</text>
    <text x="46" y="207.5" font-family="Roboto" font-size="16" fill="#e0e0e0" letter-spacing="0" font-weight="normal" font-style="normal">members, and establishing communication protocols. The meeting concluded with an agreement on the next steps, which involve creating detailed project</text>
    <text x="46" y="231.5" font-family="Roboto" font-size="16" fill="#e0e0e0" letter-spacing="0" font-weight="normal" font-style="normal">milestones and deliverables.</text>
  </g>
  <g opacity="100%">
    <rect filter="url(#filter_dshadow_0_0_0_00000014)" x="22" y="278" width="108" height="36" fill="#32bc9b" stroke="#e5e7eb" stroke-width="0" rx="18"></rect>
    <text x="38.5" y="300.5" font-family="Roboto" font-size="14" fill="#fff" letter-spacing="0" font-weight="700" font-style="normal">
      <tspan>Create Note</tspan>
    </text>
  </g>
  <g opacity="100%">
    <rect filter="url(#filter_dshadow_0_0_0_00000014)" x="146" y="278" width="106" height="36" fill="#ff784b" stroke="#e5e7eb" stroke-width="0" rx="18"></rect>
    <text x="162" y="300.5" font-family="Roboto" font-size="14" fill="#fff" letter-spacing="0" font-weight="700" font-style="normal">
      <tspan>Delete Note</tspan>
    </text>
  </g>
  <g opacity="100%">
    <rect x="1253" y="102" width="148" height="296" fill="#16213e" stroke="#e5e7eb" stroke-width="0" rx="8" filter="url(#filter_dshadow_6_0_4_0000001a)"></rect>
  </g>
  <g opacity="100%">
    <text x="1277" y="147" font-family="Roboto" font-size="20" fill="#fff" letter-spacing="0" font-weight="600" font-style="normal">Details</text>
  </g>
  <g opacity="100%" mask="url(#mask_61sbig2img)">
    <text x="1277" y="179.5" font-family="Roboto" font-size="16" fill="#fff" letter-spacing="0" font-weight="500" font-style="normal">Date</text>
    <text x="1277" y="203.5" font-family="Roboto" font-size="16" fill="#fff" letter-spacing="0" font-weight="500" font-style="normal">Created:</text>
    <text x="1277" y="227.5" font-family="Roboto" font-size="16" fill="#fff" letter-spacing="0" font-weight="500" font-style="normal">September</text>
    <text x="1277" y="251.5" font-family="Roboto" font-size="16" fill="#fff" letter-spacing="0" font-weight="500" font-style="normal">25, 2023</text>
    <defs>
      <mask id="mask_61sbig2img">
        <rect x="1277" y="162" width="100" height="72" fill="white"></rect>
      </mask>
    </defs>
  </g>
  <g opacity="100%" mask="url(#mask_68z98k2ydi)">
    <text x="1277" y="261.5" font-family="Roboto" font-size="16" fill="#fff" letter-spacing="0" font-weight="700" font-style="normal">Tags</text>
    <text x="1277" y="285.5" font-family="Roboto" font-size="16" fill="#fff" letter-spacing="0" font-weight="700" font-style="normal">:</text>
    <defs>
      <mask id="mask_68z98k2ydi">
        <rect x="1277" y="244" width="40" height="20" fill="white"></rect>
      </mask>
    </defs>
  </g>
  <g opacity="100%">
    <rect x="1277" y="275" width="68" height="28" fill="#32bc9b" stroke="#e5e7eb" stroke-width="0" rx="14" filter="url(#filter_dshadow_0_0_0_00000014)"></rect>
  </g>
  <g opacity="100%">
    <text x="1281" y="292.5" font-family="Roboto" font-size="14" fill="#000" letter-spacing="0" font-weight="500" font-style="normal">Meeting</text>
  </g>
  <g opacity="100%">
    <rect x="1277" y="310" width="92" height="28" fill="#32bc9b" stroke="#e5e7eb" stroke-width="0" rx="14" filter="url(#filter_dshadow_0_0_0_00000014)"></rect>
  </g>
  <g opacity="100%">
    <text x="1281" y="328.5" font-family="Roboto" font-size="14" fill="#000" letter-spacing="0" font-weight="500" font-style="normal">Project Plan</text>
  </g>
  <g opacity="100%">
    <rect x="1277" y="346" width="61" height="28" fill="#32bc9b" stroke="#e5e7eb" stroke-width="0" rx="14" filter="url(#filter_dshadow_0_0_0_00000014)"></rect>
  </g>
  <g opacity="100%">
    <text x="1281" y="365.5" font-family="Roboto" font-size="14" fill="#000" letter-spacing="0" font-weight="500" font-style="normal">Kickoff</text>
  </g>
  <g opacity="100%">
    <rect x="22" y="329" width="1207" height="40" fill="#16213e" stroke="#e5e7eb" stroke-width="0" rx="8" filter="url(#filter_dshadow_6_0_4_0000001a)"></rect>
  </g>
  <g opacity="100%">
    <text x="500" y="353.5" font-family="Roboto" font-size="14" fill="#fff" letter-spacing="0" font-weight="normal" font-style="normal">Need help? Click here for documentation</text>
  </g>
  <g opacity="100%">
    <rect x="22" y="369" width="1207" height="40" fill="#32bc9b" stroke="#e5e7eb" stroke-width="0" rx="8" filter="url(#filter_dshadow_6_0_4_0000001a)"></rect>
  </g>
  <g opacity="100%">
    <text x="544" y="393.5" font-family="Roboto" font-size="14" fill="#000" letter-spacing="0" font-weight="normal" font-style="normal">Note created successfully!</text>
  </g>
  <g opacity="100%">
    <rect x="22" y="409" width="1207" height="40" fill="#ff784b" stroke="#e5e7eb" stroke-width="0" rx="8" filter="url(#filter_dshadow_6_0_4_0000001a)"></rect>
  </g>
  <g opacity="100%" mask="url(#mask_lca5qo5klj)">
    <text x="441" y="437.5" font-family="Roboto" font-size="14" fill="#000" letter-spacing="0" font-weight="normal" font-style="normal">Are you sure you want to delete this</text>
    <text x="441" y="457.5" font-family="Roboto" font-size="14" fill="#000" letter-spacing="0" font-weight="normal" font-style="normal">note?</text>
    <defs>
      <mask id="mask_lca5qo5klj">
        <rect x="441" y="423" width="258" height="20" fill="white"></rect>
      </mask>
    </defs>
  </g>
  <g opacity="100%">
    <rect filter="url(#filter_dshadow_0_0_0_00000014)" x="719" y="415" width="39" height="28" fill="#32bc9b" stroke="#e5e7eb" stroke-width="0" rx="14"></rect>
    <text x="727" y="433.5" font-family="Roboto" font-size="14" fill="#fff" letter-spacing="0" font-weight="normal" font-style="normal">
      <tspan>Yes</tspan>
    </text>
  </g>
  <g opacity="100%">
    <rect filter="url(#filter_dshadow_0_0_0_00000014)" x="769" y="415" width="34" height="28" fill="#ff784b" stroke="#e5e7eb" stroke-width="0" rx="14"></rect>
    <text x="777" y="433.5" font-family="Roboto" font-size="14" fill="#fff" letter-spacing="0" font-weight="normal" font-style="normal">
      <tspan>No</tspan>
    </text>
  </g>
  <defs>
    <filter id="filter_dshadow_0_0_0_00000014" color-interpolation-filters="sRGB" filterUnits="userSpaceOnUse">
      <feFlood flood-opacity="0" result="bg-fix"></feFlood>
      <feColorMatrix in="SourceAlpha" type="matrix" values="0 0 0 0 0 0 0 0 0 0 0 0 0 0 0 0 0 0 127 0" result="alpha"></feColorMatrix>
      <feOffset dx="0" dy="0"></feOffset>
      <feGaussianBlur stdDeviation="0"></feGaussianBlur>
      <feComposite in2="alpha" operator="out"></feComposite>
      <feColorMatrix type="matrix" values="0 0 0 0 0 0 0 0 0 0 0 0 0 0 0 0 0 0 0.08 0"></feColorMatrix>
      <feBlend mode="normal" in2="bg-fix" result="bg-fix-filter_dshadow_0_0_0_00000014"></feBlend>
      <feBlend in="SourceGraphic" in2="bg-fix-filter_dshadow_0_0_0_00000014" result="shape"></feBlend>
    </filter>
    <filter id="filter_dshadow_6_0_4_0000001a" color-interpolation-filters="sRGB" filterUnits="userSpaceOnUse">
      <feFlood flood-opacity="0" result="bg-fix"></feFlood>
      <feColorMatrix in="SourceAlpha" type="matrix" values="0 0 0 0 0 0 0 0 0 0 0 0 0 0 0 0 0 0 127 0" result="alpha"></feColorMatrix>
      <feOffset dx="0" dy="4"></feOffset>
      <feGaussianBlur stdDeviation="3"></feGaussianBlur>
      <feComposite in2="alpha" operator="out"></feComposite>
      <feColorMatrix type="matrix" values="0 0 0 0 0 0 0 0 0 0 0 0 0 0 0 0 0 0 0.1 0"></feColorMatrix>
      <feBlend mode="normal" in2="bg-fix" result="bg-fix-filter_dshadow_6_0_4_0000001a"></feBlend>
      <feBlend in="SourceGraphic" in2="bg-fix-filter_dshadow_6_0_4_0000001a" result="shape"></feBlend>
    </filter>
    <style id="google">@import url(https://fonts.googleapis.com/css2?family=Roboto:ital,wght@0,100;0,300;0,400;0,500;0,700;0,900;1,100;1,300;1,400;1,500;1,700;1,900&amp;display=swap);
</style>
    <style id="brand"></style>
  </defs>
</svg>
