
<svg xmlns="http://www.w3.org/2000/svg" xmlns:xlink="http://www.w3.org/1999/xlink" viewBox="0 0 1440 900" width="1440" height="900" fill="none">
  <rect width="1440" height="900" fill="#1a1a2e"></rect>
  <g opacity="100%">
    <rect x="0" y="0" width="1440" height="80" fill="#16213e" filter="url(#filter_dshadow_0_0_0_00000014)"></rect>
    <rect x="0" y="80" width="1440" height="0" fill="#e5e7eb"></rect>
  </g>
  <svg xmlns="http://www.w3.org/2000/svg" viewBox="0 0 512 512" width="21" height="21" fill="#fff" x="24" y="29" opacity="100%">
    <path d="M501.1 395.7L384 278.6c-23.1-23.1-57.6-27.6-85.4-13.9L192 158.1V96L64 0 0 64l96 128h62.1l106.6 106.6c-13.6 27.8-9.2 62.3 13.9 85.4l117.1 117.1c14.6 14.6 38.2 14.6 52.7 0l52.7-52.7c14.5-14.6 14.5-38.2 0-52.7zM331.7 225c28.3 0 54.9 11 74.9 31l19.4 19.4c15.8-6.9 30.8-16.5 43.8-29.5 37.1-37.1 49.7-89.3 37.9-136.7-2.2-9-13.5-12.1-20.1-5.5l-74.4 74.4-67.9-11.3L334 98.9l74.4-74.4c6.6-6.6 3.4-17.9-5.7-20.2-47.4-11.7-99.6.9-136.6 37.9-28.5 28.5-41.9 66.1-41.2 103.6l82.1 82.1c8.1-1.9 16.5-2.9 24.7-2.9zm-103.9 82l-56.7-56.7L18.7 402.8c-25 25-25 65.5 0 90.5s65.5 25 90.5 0l123.6-123.6c-7.6-19.9-9.9-41.6-5-62.7zM64 472c-13.2 0-24-10.8-24-24 0-13.3 10.7-24 24-24s24 10.7 24 24c0 13.2-10.7 24-24 24z"></path>
  </svg>
  <g opacity="100%">
    <text x="56" y="46" font-family="Roboto" font-size="20" fill="#fff" letter-spacing="0" font-weight="700" font-style="normal">DinoAir Tools</text>
  </g>
  <g opacity="100%">
    <rect filter="url(#filter_dshadow_0_0_0_00000014)" x="1068" y="19" width="100" height="40" fill="#32bc9b" stroke="#e5e7eb" stroke-width="0" rx="20"></rect>
    <text x="1092" y="43.5" font-family="Roboto" font-size="14" fill="#fff" letter-spacing="0" font-weight="700" font-style="normal">
      <tspan>Projects</tspan>
    </text>
  </g>
  <g opacity="100%">
    <rect filter="url(#filter_dshadow_0_0_0_00000014)" x="1192" y="19" width="100" height="40" fill="#ff784b" stroke="#e5e7eb" stroke-width="0" rx="20"></rect>
    <text x="1227.5" y="43.5" font-family="Roboto" font-size="14" fill="#fff" letter-spacing="0" font-weight="700" font-style="normal">
      <tspan>Chat</tspan>
    </text>
  </g>
  <g opacity="100%">
    <rect filter="url(#filter_dshadow_0_0_0_00000014)" x="1316" y="19" width="100" height="40" fill="#16213e" stroke="#e5e7eb" stroke-width="0" rx="20"></rect>
    <text x="1340" y="43.5" font-family="Roboto" font-size="14" fill="#fff" letter-spacing="0" font-weight="700" font-style="normal">
      <tspan>Settings</tspan>
    </text>
  </g>
  <g opacity="100%">
    <rect x="24" y="95" width="279" height="689" fill="#0f3460" stroke="#e5e7eb" stroke-width="0" rx="8" filter="url(#filter_dshadow_6_0_4_0000001a)"></rect>
  </g>
  <g opacity="100%">
    <text x="40" y="135.5" font-family="Roboto" font-size="24" fill="#fff" letter-spacing="0" font-weight="700" font-style="normal">Smart Timer</text>
  </g>
  <g opacity="100%" mask="url(#mask_0yvno9fsw9)">
    <text x="123" y="180" font-family="Roboto" font-size="20" fill="#fff" letter-spacing="0" font-weight="600" font-style="normal">00:30:1</text>
    <text x="123" y="208" font-family="Roboto" font-size="20" fill="#fff" letter-spacing="0" font-weight="600" font-style="normal">5</text>
    <defs>
      <mask id="mask_0yvno9fsw9">
        <rect x="123" y="159" width="80" height="29" fill="white"></rect>
      </mask>
    </defs>
  </g>
  <g opacity="100%">
    <rect filter="url(#filter_dshadow_0_0_0_00000014)" x="27" y="195" width="80" height="40" fill="#32bc9b" stroke="#e5e7eb" stroke-width="0" rx="20"></rect>
    <text x="52" y="219.5" font-family="Roboto" font-size="14" fill="#fff" letter-spacing="0" font-weight="normal" font-style="normal">
      <tspan>Start</tspan>
    </text>
  </g>
  <g opacity="100%">
    <rect filter="url(#filter_dshadow_0_0_0_00000014)" x="123" y="195" width="80" height="40" fill="#ff784b" stroke="#e5e7eb" stroke-width="0" rx="20"></rect>
    <text x="148.5" y="219.5" font-family="Roboto" font-size="14" fill="#fff" letter-spacing="0" font-weight="normal" font-style="normal">
      <tspan>Stop</tspan>
    </text>
  </g>
  <g opacity="100%">
    <rect filter="url(#filter_dshadow_0_0_0_00000014)" x="219" y="195" width="80" height="40" fill="#16213e" stroke="#e5e7eb" stroke-width="0" rx="20"></rect>
    <text x="241.5" y="219.5" font-family="Roboto" font-size="14" fill="#fff" letter-spacing="0" font-weight="normal" font-style="normal">
      <tspan>Reset</tspan>
    </text>
  </g>
  <g opacity="100%">
    <rect x="330" y="95" width="1086" height="689" fill="#0f3460" stroke="#e5e7eb" stroke-width="0" rx="8" filter="url(#filter_dshadow_6_0_4_0000001a)"></rect>
  </g>
  <g opacity="100%">
    <text x="346" y="135.5" font-family="Roboto" font-size="24" fill="#fff" letter-spacing="0" font-weight="700" font-style="normal">Calendar</text>
  </g>
  <g opacity="100%">
    <rect filter="url(#filter_dshadow_0_0_0_00000014)" x="346" y="713" width="150" height="40" fill="#32bc9b" stroke="#e5e7eb" stroke-width="0" rx="20"></rect>
    <text x="364.5" y="737.5" font-family="Roboto" font-size="14" fill="#fff" letter-spacing="0" font-weight="700" font-style="normal">
      <tspan>Schedule Meeting</tspan>
    </text>
  </g>
  <g opacity="100%">
    <rect x="0" y="800" width="1440" height="100" fill="#16213e" filter="url(#filter_dshadow_0_0_0_00000014)"></rect>
    <rect x="0" y="800" width="1440" height="0" fill="#e5e7eb"></rect>
  </g>
  <g opacity="100%" mask="url(#mask_a72gadv9s)">
    <text x="57" y="855" font-family="Roboto" font-size="18" fill="#fff" letter-spacing="0" font-weight="500" font-style="normal">CPU Temp:</text>
    <text x="57" y="883" font-family="Roboto" font-size="18" fill="#fff" letter-spacing="0" font-weight="500" font-style="normal">55°C</text>
    <defs>
      <mask id="mask_a72gadv9s">
        <rect x="57" y="835" width="133" height="29" fill="white"></rect>
      </mask>
    </defs>
  </g>
  <g opacity="100%">
    <text x="271" y="855" font-family="Roboto" font-size="18" fill="#fff" letter-spacing="0" font-weight="500" font-style="normal">GPU Temp: 60°C</text>
  </g>
  <g opacity="100%">
    <text x="487" y="855" font-family="Roboto" font-size="18" fill="#fff" letter-spacing="0" font-weight="500" font-style="normal">CPU Utilization: 45%</text>
  </g>
  <g opacity="100%">
    <text x="732" y="855" font-family="Roboto" font-size="18" fill="#fff" letter-spacing="0" font-weight="500" font-style="normal">GPU Utilization: 50%</text>
  </g>
  <g opacity="100%">
    <text x="978" y="855" font-family="Roboto" font-size="18" fill="#fff" letter-spacing="0" font-weight="500" font-style="normal">VRAM Usage: 4GB</text>
  </g>
  <g opacity="100%">
    <text x="1208" y="855" font-family="Roboto" font-size="18" fill="#fff" letter-spacing="0" font-weight="500" font-style="normal">System Memory: 8GB</text>
  </g>
  <g opacity="100%">
    <rect x="551.5" y="137.5" width="636" height="519" fill="#1e1f26" stroke="#6ac8d8" stroke-width="1" rx="2"></rect>
  </g>
  <svg xmlns="http://www.w3.org/2000/svg" viewBox="0 0 448 512" width="29" height="29" fill="#fff" x="1139" y="155" opacity="100%">
    <path d="M0 464c0 26.5 21.5 48 48 48h352c26.5 0 48-21.5 48-48V192H0v272zm320-196c0-6.6 5.4-12 12-12h40c6.6 0 12 5.4 12 12v40c0 6.6-5.4 12-12 12h-40c-6.6 0-12-5.4-12-12v-40zm0 128c0-6.6 5.4-12 12-12h40c6.6 0 12 5.4 12 12v40c0 6.6-5.4 12-12 12h-40c-6.6 0-12-5.4-12-12v-40zM192 268c0-6.6 5.4-12 12-12h40c6.6 0 12 5.4 12 12v40c0 6.6-5.4 12-12 12h-40c-6.6 0-12-5.4-12-12v-40zm0 128c0-6.6 5.4-12 12-12h40c6.6 0 12 5.4 12 12v40c0 6.6-5.4 12-12 12h-40c-6.6 0-12-5.4-12-12v-40zM64 268c0-6.6 5.4-12 12-12h40c6.6 0 12 5.4 12 12v40c0 6.6-5.4 12-12 12H76c-6.6 0-12-5.4-12-12v-40zm0 128c0-6.6 5.4-12 12-12h40c6.6 0 12 5.4 12 12v40c0 6.6-5.4 12-12 12H76c-6.6 0-12-5.4-12-12v-40zM400 64h-48V16c0-8.8-7.2-16-16-16h-32c-8.8 0-16 7.2-16 16v48H160V16c0-8.8-7.2-16-16-16h-32c-8.8 0-16 7.2-16 16v48H48C21.5 64 0 85.5 0 112v48h448v-48c0-26.5-21.5-48-48-48z"></path>
  </svg>
  <g opacity="100%">
    <text x="590" y="173.5" font-family="Poppins" font-size="18" fill="#fff" letter-spacing="0" font-weight="600" font-style="normal">January 2023</text>
  </g>
  <g opacity="100%">
    <text x="957" y="301" font-family="Poppins" font-size="14" fill="#fff" letter-spacing="0" font-weight="normal" font-style="normal">
      <tspan x="974">1</tspan>
    </text>
  </g>
  <g opacity="100%">
    <text x="1046" y="301" font-family="Poppins" font-size="14" fill="#fff" letter-spacing="0" font-weight="normal" font-style="normal">
      <tspan x="1061">2</tspan>
    </text>
  </g>
  <g opacity="100%">
    <text x="1133" y="301" font-family="Poppins" font-size="14" fill="#fff" letter-spacing="0" font-weight="normal" font-style="normal">
      <tspan x="1148">3</tspan>
    </text>
  </g>
  <g opacity="100%">
    <text x="1046" y="247" font-family="Poppins" font-size="14" fill="#6ac8d8" letter-spacing="0" font-weight="normal" font-style="normal">
      <tspan x="1061">S</tspan>
    </text>
  </g>
  <g opacity="100%">
    <text x="957" y="247" font-family="Poppins" font-size="14" fill="#6ac8d8" letter-spacing="0" font-weight="normal" font-style="normal">
      <tspan x="973">F</tspan>
    </text>
  </g>
  <g opacity="100%">
    <text x="870" y="247" font-family="Poppins" font-size="14" fill="#6ac8d8" letter-spacing="0" font-weight="normal" font-style="normal">
      <tspan x="886">T</tspan>
    </text>
  </g>
  <g opacity="100%">
    <text x="783" y="247" font-family="Poppins" font-size="14" fill="#6ac8d8" letter-spacing="0" font-weight="normal" font-style="normal">
      <tspan x="796">W</tspan>
    </text>
  </g>
  <g opacity="100%">
    <text x="694" y="247" font-family="Poppins" font-size="14" fill="#6ac8d8" letter-spacing="0" font-weight="normal" font-style="normal">
      <tspan x="710">T</tspan>
    </text>
  </g>
  <g opacity="100%">
    <text x="608" y="247" font-family="Poppins" font-size="14" fill="#6ac8d8" letter-spacing="0" font-weight="normal" font-style="normal">
      <tspan x="621">M</tspan>
    </text>
  </g>
  <g opacity="100%">
    <text x="957" y="355" font-family="Poppins" font-size="14" fill="#fff" letter-spacing="0" font-weight="normal" font-style="normal">
      <tspan x="972">8</tspan>
    </text>
  </g>
  <g opacity="100%">
    <rect x="948" y="390" width="55" height="43" fill="#6ac8d8" rx="21.5"></rect>
  </g>
  <g opacity="100%">
    <text x="957" y="409" font-family="Poppins" font-size="14" fill="#030303" letter-spacing="0" font-weight="normal" font-style="normal">
      <tspan x="970">15</tspan>
    </text>
  </g>
  <g opacity="100%">
    <text x="1046" y="355" font-family="Poppins" font-size="14" fill="#fff" letter-spacing="0" font-weight="normal" font-style="normal">
      <tspan x="1061">9</tspan>
    </text>
  </g>
  <g opacity="100%">
    <text x="1046" y="409" font-family="Poppins" font-size="14" fill="#fff" letter-spacing="0" font-weight="normal" font-style="normal">
      <tspan x="1059">16</tspan>
    </text>
  </g>
  <g opacity="100%">
    <text x="1133" y="409" font-family="Poppins" font-size="14" fill="#fff" letter-spacing="0" font-weight="normal" font-style="normal">
      <tspan x="1146">17</tspan>
    </text>
  </g>
  <g opacity="100%">
    <text x="870" y="355" font-family="Poppins" font-size="14" fill="#fff" letter-spacing="0" font-weight="normal" font-style="normal">
      <tspan x="886">7</tspan>
    </text>
  </g>
  <g opacity="100%">
    <text x="608" y="463" font-family="Poppins" font-size="14" fill="#fff" letter-spacing="0" font-weight="normal" font-style="normal">
      <tspan x="621">18</tspan>
    </text>
  </g>
  <g opacity="100%">
    <text x="694" y="463" font-family="Poppins" font-size="14" fill="#fff" letter-spacing="0" font-weight="normal" font-style="normal">
      <tspan x="707">19</tspan>
    </text>
  </g>
  <g opacity="100%">
    <text x="783" y="355" font-family="Poppins" font-size="14" fill="#fff" letter-spacing="0" font-weight="normal" font-style="normal">
      <tspan x="798">6</tspan>
    </text>
  </g>
  <g opacity="100%">
    <text x="783" y="463" font-family="Poppins" font-size="14" fill="#fff" letter-spacing="0" font-weight="normal" font-style="normal">
      <tspan x="794">20</tspan>
    </text>
  </g>
  <g opacity="100%">
    <text x="870" y="463" font-family="Poppins" font-size="14" fill="#fff" letter-spacing="0" font-weight="normal" font-style="normal">
      <tspan x="883">21</tspan>
    </text>
  </g>
  <g opacity="100%">
    <text x="694" y="355" font-family="Poppins" font-size="14" fill="#fff" letter-spacing="0" font-weight="normal" font-style="normal">
      <tspan x="709">5</tspan>
    </text>
  </g>
  <g opacity="100%">
    <text x="957" y="463" font-family="Poppins" font-size="14" fill="#fff" letter-spacing="0" font-weight="normal" font-style="normal">
      <tspan x="968">22</tspan>
    </text>
  </g>
  <g opacity="100%">
    <text x="1046" y="463" font-family="Poppins" font-size="14" fill="#fff" letter-spacing="0" font-weight="normal" font-style="normal">
      <tspan x="1057">23</tspan>
    </text>
  </g>
  <g opacity="100%">
    <text x="608" y="355" font-family="Poppins" font-size="14" fill="#fff" letter-spacing="0" font-weight="normal" font-style="normal">
      <tspan x="623">4</tspan>
    </text>
  </g>
  <g opacity="100%">
    <text x="1133" y="463" font-family="Poppins" font-size="14" fill="#fff" letter-spacing="0" font-weight="normal" font-style="normal">
      <tspan x="1144">24</tspan>
    </text>
  </g>
  <g opacity="100%">
    <text x="1133" y="247" font-family="Poppins" font-size="14" fill="#6ac8d8" letter-spacing="0" font-weight="normal" font-style="normal">
      <tspan x="1148">S</tspan>
    </text>
  </g>
  <g opacity="100%">
    <text x="608" y="518" font-family="Poppins" font-size="14" fill="#fff" letter-spacing="0" font-weight="normal" font-style="normal">
      <tspan x="619">25</tspan>
    </text>
  </g>
  <g opacity="100%">
    <text x="694" y="518" font-family="Poppins" font-size="14" fill="#fff" letter-spacing="0" font-weight="normal" font-style="normal">
      <tspan x="705">26</tspan>
    </text>
  </g>
  <g opacity="100%">
    <text x="1133" y="355" font-family="Poppins" font-size="14" fill="#fff" letter-spacing="0" font-weight="normal" font-style="normal">
      <tspan x="1146">10</tspan>
    </text>
  </g>
  <g opacity="100%">
    <text x="783" y="518" font-family="Poppins" font-size="14" fill="#fff" letter-spacing="0" font-weight="normal" font-style="normal">
      <tspan x="795">27</tspan>
    </text>
  </g>
  <g opacity="100%">
    <text x="870" y="518" font-family="Poppins" font-size="14" fill="#fff" letter-spacing="0" font-weight="normal" font-style="normal">
      <tspan x="881">28</tspan>
    </text>
  </g>
  <g opacity="100%">
    <text x="608" y="409" font-family="Poppins" font-size="14" fill="#fff" letter-spacing="0" font-weight="normal" font-style="normal">
      <tspan x="623">11</tspan>
    </text>
  </g>
  <g opacity="100%">
    <text x="957" y="518" font-family="Poppins" font-size="14" fill="#fff" letter-spacing="0" font-weight="normal" font-style="normal">
      <tspan x="968">29</tspan>
    </text>
  </g>
  <g opacity="100%">
    <text x="1046" y="518" font-family="Poppins" font-size="14" fill="#fff" letter-spacing="0" font-weight="normal" font-style="normal">
      <tspan x="1057">30</tspan>
    </text>
  </g>
  <g opacity="100%">
    <text x="694" y="409" font-family="Poppins" font-size="14" fill="#fff" letter-spacing="0" font-weight="normal" font-style="normal">
      <tspan x="707">12</tspan>
    </text>
  </g>
  <g opacity="100%">
    <text x="1133" y="518" font-family="Poppins" font-size="14" fill="#fff" letter-spacing="0" font-weight="normal" font-style="normal">
      <tspan x="1146">31</tspan>
    </text>
  </g>
  <g opacity="100%">
    <text x="783" y="409" font-family="Poppins" font-size="14" fill="#fff" letter-spacing="0" font-weight="normal" font-style="normal">
      <tspan x="796">13</tspan>
    </text>
  </g>
  <svg xmlns="http://www.w3.org/2000/svg" viewBox="0 0 256 512" width="36" height="36" fill="#6ac8d8" x="613" y="572" opacity="100%">
    <path d="M31.7 239l136-136c9.4-9.4 24.6-9.4 33.9 0l22.6 22.6c9.4 9.4 9.4 24.6 0 33.9L127.9 256l96.4 96.4c9.4 9.4 9.4 24.6 0 33.9L201.7 409c-9.4 9.4-24.6 9.4-33.9 0l-136-136c-9.5-9.4-9.5-24.6-.1-34z"></path>
  </svg>
  <svg xmlns="http://www.w3.org/2000/svg" viewBox="0 0 256 512" width="36" height="36" fill="#6ac8d8" x="1131" y="572" opacity="100%">
    <path d="M224.3 273l-136 136c-9.4 9.4-24.6 9.4-33.9 0l-22.6-22.6c-9.4-9.4-9.4-24.6 0-33.9l96.4-96.4-96.4-96.4c-9.4-9.4-9.4-24.6 0-33.9L54.3 103c9.4-9.4 24.6-9.4 33.9 0l136 136c9.5 9.4 9.5 24.6.1 34z"></path>
  </svg>
  <g opacity="100%">
    <text x="870" y="409" font-family="Poppins" font-size="14" fill="#fff" letter-spacing="0" font-weight="normal" font-style="normal">
      <tspan x="883">14</tspan>
    </text>
  </g>
  <defs>
    <filter id="filter_dshadow_0_0_0_00000014" color-interpolation-filters="sRGB" filterUnits="userSpaceOnUse">
      <feFlood flood-opacity="0" result="bg-fix"></feFlood>
      <feColorMatrix in="SourceAlpha" type="matrix" values="0 0 0 0 0 0 0 0 0 0 0 0 0 0 0 0 0 0 127 0" result="alpha"></feColorMatrix>
      <feOffset dx="0" dy="0"></feOffset>
      <feGaussianBlur stdDeviation="0"></feGaussianBlur>
      <feComposite in2="alpha" operator="out"></feComposite>
      <feColorMatrix type="matrix" values="0 0 0 0 0 0 0 0 0 0 0 0 0 0 0 0 0 0 0.08 0"></feColorMatrix>
      <feBlend mode="normal" in2="bg-fix" result="bg-fix-filter_dshadow_0_0_0_00000014"></feBlend>
      <feBlend in="SourceGraphic" in2="bg-fix-filter_dshadow_0_0_0_00000014" result="shape"></feBlend>
    </filter>
    <filter id="filter_dshadow_6_0_4_0000001a" color-interpolation-filters="sRGB" filterUnits="userSpaceOnUse">
      <feFlood flood-opacity="0" result="bg-fix"></feFlood>
      <feColorMatrix in="SourceAlpha" type="matrix" values="0 0 0 0 0 0 0 0 0 0 0 0 0 0 0 0 0 0 127 0" result="alpha"></feColorMatrix>
      <feOffset dx="0" dy="4"></feOffset>
      <feGaussianBlur stdDeviation="3"></feGaussianBlur>
      <feComposite in2="alpha" operator="out"></feComposite>
      <feColorMatrix type="matrix" values="0 0 0 0 0 0 0 0 0 0 0 0 0 0 0 0 0 0 0.1 0"></feColorMatrix>
      <feBlend mode="normal" in2="bg-fix" result="bg-fix-filter_dshadow_6_0_4_0000001a"></feBlend>
      <feBlend in="SourceGraphic" in2="bg-fix-filter_dshadow_6_0_4_0000001a" result="shape"></feBlend>
    </filter>
    <style id="google">@import url(https://fonts.googleapis.com/css2?family=Roboto:ital,wght@0,100;0,300;0,400;0,500;0,700;0,900;1,100;1,300;1,400;1,500;1,700;1,900&amp;display=swap);
@import url(https://fonts.googleapis.com/css2?family=Poppins:ital,wght@0,100;0,200;0,300;0,400;0,500;0,600;0,700;0,800;0,900;1,100;1,200;1,300;1,400;1,500;1,600;1,700;1,800;1,900&amp;display=swap);
</style>
    <style id="brand"></style>
  </defs>
</svg>
